<?xml version="1.0" encoding="iso-8859-1"?>
<!-- Generator: Adobe Illustrator 16.0.0, SVG Export Plug-In . SVG Version: 6.00 Build 0)  -->
<!DOCTYPE svg PUBLIC "-//W3C//DTD SVG 1.1//EN" "http://www.w3.org/Graphics/SVG/1.1/DTD/svg11.dtd">
<svg version="1.1" id="Layer_1" xmlns="http://www.w3.org/2000/svg" xmlns:xlink="http://www.w3.org/1999/xlink" x="0px" y="0px"
	 width="67px" height="67px" viewBox="0 0 67 67" style="enable-background:new 0 0 67 67;" xml:space="preserve">
<path style="fill-rule:evenodd;clip-rule:evenodd;fill:#4D83BA;" d="M24.794,26.282v5.579h2.79v8.37
	c0.22,6.844,3.982,8.27,8.369,8.742c2.55-0.128,5.674-1.072,7.253-2.326v-4.742c-2.031,1.974-7.484,3.91-8.462-1.674l-0.094-8.462
	l8.556,0.093v-5.672H34.65l0.187-7.161l-3.44,0.093C31.633,25.229,28.387,26.047,24.794,26.282z M34,64C17.432,64,4,50.568,4,34
	C4,17.431,17.432,4,34,4s30,13.431,30,30C64,50.568,50.568,64,34,64z"/>
</svg>
